<?xml version="1.0" encoding="UTF-8"?>
<svg viewBox="0 0 640 480" xmlns="http://www.w3.org/2000/svg">
 <g fill="none" stroke="#000" stroke-width="15">
  <path d="m386.49 235.72c0 102.3-18.888 185.22-42.188 185.22s-42.188-82.927-42.188-185.22c0-102.3 18.888-185.22 42.188-185.22s42.188 82.927 42.188 185.22z" opacity=".8"/>
  <path d="m365.4 272.26c-88.591 51.148-169.85 76.254-181.5 56.076s50.723-77.999 139.31-129.15c88.591-51.148 169.85-76.254 181.5-56.076s-50.723 77.999-139.31 129.15z" opacity=".8"/>
  <path d="m323.21 272.26c88.591 51.148 169.85 76.254 181.5 56.076s-50.723-77.999-139.31-129.15c-88.591-51.148-169.85-76.254-181.5-56.076s50.723 77.999 139.31 129.15z" opacity=".8"/>
  <path d="m361.99 235.72c0 9.7636-7.915 17.679-17.679 17.679-9.7636 0-17.679-7.915-17.679-17.679 0-9.7636 7.915-17.679 17.679-17.679 9.7636 0 17.679 7.915 17.679 17.679z" opacity=".8" stroke-linecap="round"/>
 </g>
</svg>
